<?xml version="1.0" encoding="utf-8"?>
<!-- Generator: Adobe Illustrator 16.0.0, SVG Export Plug-In . SVG Version: 6.00 Build 0)  -->
<!DOCTYPE svg PUBLIC "-//W3C//DTD SVG 1.1//EN" "http://www.w3.org/Graphics/SVG/1.1/DTD/svg11.dtd">
<svg version="1.1" id="圖層_1" xmlns="http://www.w3.org/2000/svg" xmlns:xlink="http://www.w3.org/1999/xlink" x="0px" y="0px"
	 width="930px" height="278.949px" viewBox="0 0 930 278.949" enable-background="new 0 0 930 278.949" xml:space="preserve">
<g>
	<g>
		<rect x="282.044" y="16" fill="#FDBB05" width="29.338" height="224.756"/>
		<rect x="546.076" y="16" fill="#FDBB05" width="29.338" height="224.756"/>
		<rect x="810.158" y="16" fill="#FDBB05" width="29.338" height="224.756"/>
		<g>
			<g>
				<rect x="18" y="16" fill="none" stroke="#005E91" stroke-miterlimit="10" width="880.146" height="224.756"/>
				<line fill="none" stroke="#005E91" stroke-miterlimit="10" x1="18" y1="215.783" x2="912.318" y2="215.783"/>
				<line fill="none" stroke="#005E91" stroke-miterlimit="10" x1="18" y1="190.81" x2="912.318" y2="190.81"/>
				<line fill="none" stroke="#005E91" stroke-miterlimit="10" x1="18" y1="165.837" x2="912.318" y2="165.837"/>
				<line fill="none" stroke="#005E91" stroke-miterlimit="10" x1="18" y1="140.865" x2="912.318" y2="140.865"/>
				<line fill="none" stroke="#005E91" stroke-miterlimit="10" x1="18" y1="115.892" x2="912.318" y2="115.892"/>
				<line fill="none" stroke="#005E91" stroke-miterlimit="10" x1="18" y1="90.919" x2="912.318" y2="90.919"/>
				<line fill="none" stroke="#005E91" stroke-miterlimit="10" x1="18" y1="65.946" x2="912.318" y2="65.946"/>
				<line fill="none" stroke="#005E91" stroke-miterlimit="10" x1="18" y1="40.973" x2="912.318" y2="40.973"/>
				<line fill="none" stroke="#005E91" stroke-miterlimit="10" x1="868.809" y1="16" x2="868.809" y2="240.756"/>
				<line fill="none" stroke="#005E91" stroke-miterlimit="10" x1="839.469" y1="16" x2="839.469" y2="240.756"/>
				<line fill="none" stroke="#005E91" stroke-miterlimit="10" x1="810.131" y1="16" x2="810.131" y2="240.756"/>
				<line fill="none" stroke="#005E91" stroke-miterlimit="10" x1="780.793" y1="16" x2="780.793" y2="240.756"/>
				<line fill="none" stroke="#005E91" stroke-miterlimit="10" x1="751.455" y1="16" x2="751.455" y2="240.756"/>
				<line fill="none" stroke="#005E91" stroke-miterlimit="10" x1="722.117" y1="16" x2="722.117" y2="240.756"/>
				<line fill="none" stroke="#005E91" stroke-miterlimit="10" x1="692.779" y1="16" x2="692.779" y2="240.756"/>
				<line fill="none" stroke="#005E91" stroke-miterlimit="10" x1="663.439" y1="16" x2="663.439" y2="240.756"/>
				<line fill="none" stroke="#005E91" stroke-miterlimit="10" x1="634.102" y1="16" x2="634.102" y2="240.756"/>
				<line fill="none" stroke="#005E91" stroke-miterlimit="10" x1="604.764" y1="16" x2="604.764" y2="240.756"/>
				<line fill="none" stroke="#005E91" stroke-miterlimit="10" x1="575.426" y1="16" x2="575.426" y2="240.756"/>
				<line fill="none" stroke="#005E91" stroke-miterlimit="10" x1="546.088" y1="16" x2="546.088" y2="240.756"/>
				<line fill="none" stroke="#005E91" stroke-miterlimit="10" x1="516.75" y1="16" x2="516.75" y2="240.756"/>
				<line fill="none" stroke="#005E91" stroke-miterlimit="10" x1="487.412" y1="16" x2="487.412" y2="240.756"/>
				<line fill="none" stroke="#005E91" stroke-miterlimit="10" x1="458.073" y1="16" x2="458.073" y2="240.756"/>
				<line fill="none" stroke="#005E91" stroke-miterlimit="10" x1="428.735" y1="16" x2="428.735" y2="240.756"/>
				<line fill="none" stroke="#005E91" stroke-miterlimit="10" x1="399.396" y1="16" x2="399.396" y2="240.756"/>
				<line fill="none" stroke="#005E91" stroke-miterlimit="10" x1="370.059" y1="16" x2="370.059" y2="240.756"/>
				<line fill="none" stroke="#005E91" stroke-miterlimit="10" x1="340.72" y1="16" x2="340.72" y2="240.756"/>
				<line fill="none" stroke="#005E91" stroke-miterlimit="10" x1="311.382" y1="16" x2="311.382" y2="240.756"/>
				<line fill="none" stroke="#005E91" stroke-miterlimit="10" x1="282.044" y1="16" x2="282.044" y2="240.756"/>
				<line fill="none" stroke="#005E91" stroke-miterlimit="10" x1="252.706" y1="16" x2="252.706" y2="240.756"/>
				<line fill="none" stroke="#005E91" stroke-miterlimit="10" x1="223.367" y1="16" x2="223.367" y2="240.756"/>
				<line fill="none" stroke="#005E91" stroke-miterlimit="10" x1="194.029" y1="16" x2="194.029" y2="240.756"/>
				<line fill="none" stroke="#005E91" stroke-miterlimit="10" x1="164.691" y1="16" x2="164.691" y2="240.756"/>
				<line fill="none" stroke="#005E91" stroke-miterlimit="10" x1="135.353" y1="16" x2="135.353" y2="240.756"/>
				<line fill="none" stroke="#005E91" stroke-miterlimit="10" x1="106.015" y1="16" x2="106.015" y2="240.756"/>
				<line fill="none" stroke="#005E91" stroke-miterlimit="10" x1="76.676" y1="16" x2="76.676" y2="240.756"/>
				<line fill="none" stroke="#005E91" stroke-miterlimit="10" x1="47.338" y1="16" x2="47.338" y2="240.756"/>
			</g>
		</g>
		<g>
			<g>
				<path fill="#55B948" d="M58.628,32.208h2.326v-6.229h-2.017v-1.62c1.178-0.221,1.944-0.515,2.709-0.986h1.929v8.835h1.973v2.12
					h-6.92V32.208z"/>
			</g>
			<g>
				<path fill="#55B948" d="M87.399,32.827c2.739-2.488,4.58-4.476,4.58-6.066c0-1.001-0.56-1.546-1.428-1.546
					c-0.751,0-1.34,0.501-1.855,1.061l-1.428-1.414c1.075-1.134,2.076-1.693,3.637-1.693c2.12,0,3.593,1.354,3.593,3.445
					c0,1.885-1.62,3.961-3.298,5.654c0.545-0.074,1.295-0.147,1.782-0.147h2.017v2.208h-7.598V32.827z"/>
			</g>
			<g>
				<path fill="#55B948" d="M116.477,33.003l1.208-1.649c0.663,0.633,1.428,1.061,2.282,1.061c1.016,0,1.679-0.427,1.679-1.252
					c0-0.942-0.501-1.502-2.798-1.502v-1.84c1.87,0,2.459-0.574,2.459-1.443c0-0.751-0.441-1.164-1.251-1.164
					c-0.736,0-1.296,0.339-1.958,0.913l-1.325-1.605c1.016-0.854,2.105-1.354,3.401-1.354c2.268,0,3.755,1.06,3.755,3.019
					c0,1.089-0.589,1.943-1.767,2.415v0.074c1.222,0.368,2.121,1.251,2.121,2.665c0,2.047-1.87,3.195-4.049,3.195
					C118.494,34.535,117.272,33.931,116.477,33.003z"/>
			</g>
			<g>
				<path fill="#55B948" d="M154.051,31.59h-1.222v2.739h-2.444V31.59h-4.594v-1.811l3.814-6.405h3.225v6.229h1.222V31.59z
					 M150.384,29.602v-1.605c0-0.692,0.074-1.738,0.103-2.43h-0.059c-0.28,0.619-0.574,1.251-0.884,1.87l-1.251,2.165H150.384z"/>
			</g>
			<g>
				<path fill="#55B948" d="M175.177,33.018l1.192-1.649c0.618,0.589,1.384,1.045,2.253,1.045c1.06,0,1.723-0.574,1.723-1.708
					c0-1.104-0.663-1.693-1.605-1.693c-0.604,0-0.898,0.118-1.546,0.53l-1.149-0.751l0.28-5.418h6.155v2.179h-3.902l-0.162,1.855
					c0.397-0.162,0.722-0.221,1.134-0.221c1.855,0,3.416,1.09,3.416,3.46c0,2.459-1.855,3.887-3.961,3.887
					C177.253,34.535,176.045,33.872,175.177,33.018z"/>
			</g>
			<g>
				<path fill="#55B948" d="M210.998,26.024c-0.354-0.383-1.031-0.766-1.635-0.766c-1.134,0-2.032,0.81-2.135,3.195
					c0.544-0.692,1.472-1.075,2.091-1.075c1.826,0,3.21,1.061,3.21,3.446c0,2.327-1.649,3.71-3.607,3.71
					c-2.062,0-4.094-1.605-4.094-5.595c0-3.961,2.091-5.772,4.358-5.772c1.443,0,2.503,0.604,3.195,1.31L210.998,26.024z
					 M210.129,30.824c0-1.208-0.589-1.605-1.311-1.605c-0.545,0-1.104,0.265-1.546,0.986c0.221,1.826,0.898,2.371,1.59,2.371
					S210.129,32.061,210.129,30.824z"/>
			</g>
			<g>
				<path fill="#55B948" d="M238.956,25.553h-4.712v-2.179h7.51v1.59c-2.533,3.019-2.798,5.08-2.989,9.365h-2.636
					C236.335,30.721,236.895,28.409,238.956,25.553z"/>
			</g>
			<g>
				<path fill="#55B948" d="M263.542,31.604c0-1.369,0.781-2.223,1.796-2.768v-0.074c-0.854-0.633-1.428-1.473-1.428-2.636
					c0-1.826,1.443-2.959,3.475-2.959c1.973,0,3.283,1.148,3.283,2.93c0,1.045-0.633,1.914-1.384,2.429v0.074
					c1.045,0.545,1.841,1.458,1.841,2.96c0,1.693-1.532,2.974-3.829,2.974C265.147,34.535,263.542,33.342,263.542,31.604z
					 M268.696,31.458c0-0.958-0.839-1.37-2.18-1.944c-0.441,0.427-0.736,1.089-0.736,1.782c0,0.898,0.721,1.414,1.576,1.414
					C268.107,32.709,268.696,32.326,268.696,31.458z M268.549,26.274c0-0.795-0.456-1.296-1.237-1.296
					c-0.589,0-1.104,0.368-1.104,1.148c0,0.869,0.677,1.34,1.752,1.767C268.372,27.393,268.549,26.833,268.549,26.274z"/>
			</g>
			<g>
				<path fill="#55B948" d="M294.254,31.664c0.368,0.397,1.046,0.751,1.679,0.751c1.119,0,2.003-0.795,2.105-3.195
					c-0.53,0.707-1.458,1.104-2.091,1.104c-1.84,0-3.21-1.09-3.21-3.446c0-2.327,1.649-3.71,3.607-3.71
					c2.077,0,4.094,1.575,4.094,5.551c0,3.976-2.091,5.816-4.329,5.816c-1.473,0-2.532-0.618-3.225-1.311L294.254,31.664z
					 M297.994,27.452c-0.221-1.811-0.913-2.327-1.59-2.327c-0.692,0-1.281,0.486-1.281,1.752c0,1.178,0.589,1.605,1.325,1.605
					C296.979,28.483,297.567,28.203,297.994,27.452z"/>
			</g>
			<g>
				<path fill="#55B948" d="M318.184,32.208h2.326v-6.229h-2.017v-1.62c1.178-0.221,1.944-0.515,2.709-0.986h1.929v8.835h1.973v2.12
					h-6.92V32.208z"/>
				<path fill="#55B948" d="M326.61,28.792c0-3.77,1.561-5.625,3.873-5.625s3.887,1.885,3.887,5.625c0,3.77-1.576,5.743-3.887,5.743
					S326.61,32.562,326.61,28.792z M331.896,28.792c0-2.989-0.633-3.607-1.414-3.607s-1.399,0.619-1.399,3.607
					c0,3.004,0.619,3.711,1.399,3.711S331.896,31.796,331.896,28.792z"/>
			</g>
			<g>
				<path fill="#55B948" d="M347.525,32.208h2.327v-6.229h-2.017v-1.62c1.178-0.221,1.943-0.515,2.709-0.986h1.929v8.835h1.974v2.12
					h-6.921V32.208z"/>
				<path fill="#55B948" d="M356.497,32.208h2.327v-6.229h-2.018v-1.62c1.178-0.221,1.944-0.515,2.709-0.986h1.929v8.835h1.973v2.12
					h-6.92V32.208z"/>
			</g>
			<g>
				<path fill="#55B948" d="M376.868,32.208h2.326v-6.229h-2.017v-1.62c1.178-0.221,1.944-0.515,2.709-0.986h1.929v8.835h1.973v2.12
					h-6.92V32.208z"/>
				<path fill="#55B948" d="M385.309,32.827c2.739-2.488,4.58-4.476,4.58-6.066c0-1.001-0.56-1.546-1.429-1.546
					c-0.751,0-1.34,0.501-1.855,1.061l-1.428-1.414c1.075-1.134,2.076-1.693,3.637-1.693c2.121,0,3.593,1.354,3.593,3.445
					c0,1.885-1.62,3.961-3.298,5.654c0.544-0.074,1.295-0.147,1.781-0.147h2.018v2.208h-7.598V32.827z"/>
			</g>
			<g>
				<path fill="#55B948" d="M406.21,32.208h2.327v-6.229h-2.018v-1.62c1.178-0.221,1.944-0.515,2.709-0.986h1.929v8.835h1.973v2.12
					h-6.92V32.208z"/>
				<path fill="#55B948" d="M414.387,33.003l1.207-1.649c0.663,0.633,1.429,1.061,2.283,1.061c1.016,0,1.678-0.427,1.678-1.252
					c0-0.942-0.5-1.502-2.797-1.502v-1.84c1.87,0,2.459-0.574,2.459-1.443c0-0.751-0.442-1.164-1.251-1.164
					c-0.736,0-1.296,0.339-1.958,0.913l-1.325-1.605c1.016-0.854,2.105-1.354,3.401-1.354c2.268,0,3.755,1.06,3.755,3.019
					c0,1.089-0.589,1.943-1.767,2.415v0.074c1.222,0.368,2.12,1.251,2.12,2.665c0,2.047-1.87,3.195-4.049,3.195
					C416.404,34.535,415.182,33.931,414.387,33.003z"/>
			</g>
			<g>
				<path fill="#55B948" d="M435.553,32.208h2.327v-6.229h-2.017v-1.62c1.178-0.221,1.943-0.515,2.709-0.986h1.929v8.835h1.974v2.12
					h-6.921V32.208z"/>
				<path fill="#55B948" d="M451.96,31.59h-1.222v2.739h-2.444V31.59h-4.594v-1.811l3.814-6.405h3.225v6.229h1.222V31.59z
					 M448.293,29.602v-1.605c0-0.692,0.074-1.738,0.103-2.43h-0.059c-0.28,0.619-0.574,1.251-0.884,1.87l-1.251,2.165H448.293z"/>
			</g>
			<g>
				<path fill="#55B948" d="M464.896,32.208h2.326v-6.229h-2.017v-1.62c1.178-0.221,1.944-0.515,2.709-0.986h1.929v8.835h1.974v2.12
					h-6.921V32.208z"/>
				<path fill="#55B948" d="M473.086,33.018l1.193-1.649c0.618,0.589,1.384,1.045,2.252,1.045c1.061,0,1.723-0.574,1.723-1.708
					c0-1.104-0.662-1.693-1.604-1.693c-0.604,0-0.898,0.118-1.546,0.53l-1.148-0.751l0.279-5.418h6.155v2.179h-3.902l-0.161,1.855
					c0.396-0.162,0.721-0.221,1.133-0.221c1.855,0,3.416,1.09,3.416,3.46c0,2.459-1.854,3.887-3.961,3.887
					C475.162,34.535,473.955,33.872,473.086,33.018z"/>
			</g>
			<g>
				<path fill="#55B948" d="M494.237,32.208h2.327v-6.229h-2.018v-1.62c1.178-0.221,1.943-0.515,2.709-0.986h1.93v8.835h1.973v2.12
					h-6.921V32.208z"/>
				<path fill="#55B948" d="M508.907,26.024c-0.354-0.383-1.03-0.766-1.634-0.766c-1.135,0-2.033,0.81-2.136,3.195
					c0.545-0.692,1.473-1.075,2.091-1.075c1.826,0,3.21,1.061,3.21,3.446c0,2.327-1.649,3.71-3.607,3.71
					c-2.062,0-4.094-1.605-4.094-5.595c0-3.961,2.091-5.772,4.358-5.772c1.443,0,2.504,0.604,3.195,1.31L508.907,26.024z
					 M508.039,30.824c0-1.208-0.59-1.605-1.311-1.605c-0.545,0-1.104,0.265-1.547,0.986c0.221,1.826,0.898,2.371,1.591,2.371
					S508.039,32.061,508.039,30.824z"/>
			</g>
			<g>
				<path fill="#55B948" d="M523.58,32.208h2.326v-6.229h-2.017v-1.62c1.178-0.221,1.943-0.515,2.709-0.986h1.929v8.835h1.974v2.12
					h-6.921V32.208z"/>
				<path fill="#55B948" d="M536.865,25.553h-4.711v-2.179h7.509v1.59c-2.532,3.019-2.798,5.08-2.989,9.365h-2.635
					C534.244,30.721,534.805,28.409,536.865,25.553z"/>
			</g>
			<g>
				<path fill="#55B948" d="M552.922,32.208h2.327v-6.229h-2.018v-1.62c1.178-0.221,1.943-0.515,2.709-0.986h1.929v8.835h1.974v2.12
					h-6.921V32.208z"/>
				<path fill="#55B948" d="M561.451,31.604c0-1.369,0.781-2.223,1.797-2.768v-0.074c-0.854-0.633-1.428-1.473-1.428-2.636
					c0-1.826,1.442-2.959,3.475-2.959c1.973,0,3.283,1.148,3.283,2.93c0,1.045-0.633,1.914-1.384,2.429v0.074
					c1.046,0.545,1.841,1.458,1.841,2.96c0,1.693-1.531,2.974-3.828,2.974C563.057,34.535,561.451,33.342,561.451,31.604z
					 M566.605,31.458c0-0.958-0.84-1.37-2.18-1.944c-0.441,0.427-0.736,1.089-0.736,1.782c0,0.898,0.722,1.414,1.576,1.414
					C566.017,32.709,566.605,32.326,566.605,31.458z M566.458,26.274c0-0.795-0.456-1.296-1.237-1.296
					c-0.588,0-1.104,0.368-1.104,1.148c0,0.869,0.677,1.34,1.752,1.767C566.281,27.393,566.458,26.833,566.458,26.274z"/>
			</g>
			<g>
				<path fill="#55B948" d="M582.265,32.208h2.327v-6.229h-2.018v-1.62c1.178-0.221,1.943-0.515,2.709-0.986h1.93v8.835h1.973v2.12
					h-6.921V32.208z"/>
				<path fill="#55B948" d="M592.164,31.664c0.368,0.397,1.045,0.751,1.679,0.751c1.118,0,2.002-0.795,2.105-3.195
					c-0.53,0.707-1.458,1.104-2.091,1.104c-1.841,0-3.21-1.09-3.21-3.446c0-2.327,1.649-3.71,3.607-3.71
					c2.076,0,4.093,1.575,4.093,5.551c0,3.976-2.09,5.816-4.328,5.816c-1.473,0-2.533-0.618-3.225-1.311L592.164,31.664z
					 M595.904,27.452c-0.221-1.811-0.913-2.327-1.591-2.327c-0.692,0-1.28,0.486-1.28,1.752c0,1.178,0.588,1.605,1.324,1.605
					C594.888,28.483,595.477,28.203,595.904,27.452z"/>
			</g>
			<g>
				<path fill="#55B948" d="M611.077,32.827c2.739-2.488,4.579-4.476,4.579-6.066c0-1.001-0.56-1.546-1.428-1.546
					c-0.751,0-1.34,0.501-1.855,1.061l-1.429-1.414c1.075-1.134,2.076-1.693,3.638-1.693c2.12,0,3.593,1.354,3.593,3.445
					c0,1.885-1.62,3.961-3.299,5.654c0.545-0.074,1.296-0.147,1.782-0.147h2.017v2.208h-7.598V32.827z"/>
				<path fill="#55B948" d="M620.033,28.792c0-3.77,1.562-5.625,3.873-5.625s3.887,1.885,3.887,5.625
					c0,3.77-1.575,5.743-3.887,5.743S620.033,32.562,620.033,28.792z M625.32,28.792c0-2.989-0.634-3.607-1.414-3.607
					s-1.398,0.619-1.398,3.607c0,3.004,0.618,3.711,1.398,3.711S625.32,31.796,625.32,28.792z"/>
			</g>
			<g>
				<path fill="#55B948" d="M640.42,32.827c2.738-2.488,4.579-4.476,4.579-6.066c0-1.001-0.56-1.546-1.429-1.546
					c-0.751,0-1.34,0.501-1.855,1.061l-1.428-1.414c1.074-1.134,2.076-1.693,3.637-1.693c2.121,0,3.593,1.354,3.593,3.445
					c0,1.885-1.62,3.961-3.298,5.654c0.545-0.074,1.295-0.147,1.781-0.147h2.018v2.208h-7.598V32.827z"/>
				<path fill="#55B948" d="M649.921,32.208h2.326v-6.229h-2.017v-1.62c1.178-0.221,1.943-0.515,2.709-0.986h1.929v8.835h1.974v2.12
					h-6.921V32.208z"/>
			</g>
			<g>
				<path fill="#55B948" d="M669.762,32.827c2.739-2.488,4.58-4.476,4.58-6.066c0-1.001-0.561-1.546-1.429-1.546
					c-0.751,0-1.34,0.501-1.855,1.061l-1.429-1.414c1.075-1.134,2.076-1.693,3.638-1.693c2.12,0,3.593,1.354,3.593,3.445
					c0,1.885-1.62,3.961-3.299,5.654c0.545-0.074,1.296-0.147,1.782-0.147h2.017v2.208h-7.598V32.827z"/>
				<path fill="#55B948" d="M678.733,32.827c2.738-2.488,4.579-4.476,4.579-6.066c0-1.001-0.56-1.546-1.428-1.546
					c-0.752,0-1.34,0.501-1.855,1.061l-1.429-1.414c1.075-1.134,2.076-1.693,3.638-1.693c2.119,0,3.592,1.354,3.592,3.445
					c0,1.885-1.619,3.961-3.298,5.654c0.545-0.074,1.296-0.147,1.782-0.147h2.017v2.208h-7.598V32.827z"/>
			</g>
			<g>
				<path fill="#55B948" d="M699.104,32.827c2.739-2.488,4.58-4.476,4.58-6.066c0-1.001-0.56-1.546-1.429-1.546
					c-0.751,0-1.34,0.501-1.854,1.061l-1.429-1.414c1.075-1.134,2.076-1.693,3.637-1.693c2.12,0,3.593,1.354,3.593,3.445
					c0,1.885-1.619,3.961-3.298,5.654c0.544-0.074,1.296-0.147,1.781-0.147h2.018v2.208h-7.599V32.827z"/>
				<path fill="#55B948" d="M707.811,33.003l1.207-1.649c0.662,0.633,1.428,1.061,2.282,1.061c1.017,0,1.679-0.427,1.679-1.252
					c0-0.942-0.5-1.502-2.798-1.502v-1.84c1.87,0,2.459-0.574,2.459-1.443c0-0.751-0.441-1.164-1.251-1.164
					c-0.736,0-1.296,0.339-1.959,0.913l-1.325-1.605c1.017-0.854,2.105-1.354,3.401-1.354c2.268,0,3.755,1.06,3.755,3.019
					c0,1.089-0.589,1.943-1.767,2.415v0.074c1.222,0.368,2.12,1.251,2.12,2.665c0,2.047-1.87,3.195-4.05,3.195
					C709.827,34.535,708.605,33.931,707.811,33.003z"/>
			</g>
			<g>
				<path fill="#55B948" d="M728.447,32.827c2.738-2.488,4.579-4.476,4.579-6.066c0-1.001-0.56-1.546-1.429-1.546
					c-0.75,0-1.34,0.501-1.854,1.061l-1.429-1.414c1.075-1.134,2.076-1.693,3.637-1.693c2.121,0,3.594,1.354,3.594,3.445
					c0,1.885-1.62,3.961-3.299,5.654c0.545-0.074,1.296-0.147,1.781-0.147h2.018v2.208h-7.598V32.827z"/>
				<path fill="#55B948" d="M745.385,31.59h-1.223v2.739h-2.444V31.59h-4.594v-1.811l3.813-6.405h3.225v6.229h1.223V31.59z
					 M741.718,29.602v-1.605c0-0.692,0.073-1.738,0.104-2.43h-0.06c-0.279,0.619-0.574,1.251-0.883,1.87l-1.252,2.165H741.718z"/>
			</g>
			<g>
				<path fill="#55B948" d="M757.789,32.827c2.738-2.488,4.579-4.476,4.579-6.066c0-1.001-0.56-1.546-1.428-1.546
					c-0.751,0-1.34,0.501-1.855,1.061l-1.429-1.414c1.075-1.134,2.076-1.693,3.637-1.693c2.121,0,3.594,1.354,3.594,3.445
					c0,1.885-1.62,3.961-3.299,5.654c0.545-0.074,1.296-0.147,1.782-0.147h2.017v2.208h-7.598V32.827z"/>
				<path fill="#55B948" d="M766.51,33.018l1.193-1.649c0.618,0.589,1.384,1.045,2.252,1.045c1.061,0,1.723-0.574,1.723-1.708
					c0-1.104-0.662-1.693-1.604-1.693c-0.604,0-0.898,0.118-1.546,0.53l-1.148-0.751l0.279-5.418h6.155v2.179h-3.902l-0.161,1.855
					c0.396-0.162,0.721-0.221,1.133-0.221c1.855,0,3.416,1.09,3.416,3.46c0,2.459-1.854,3.887-3.961,3.887
					C768.586,34.535,767.379,33.872,766.51,33.018z"/>
			</g>
			<g>
				<path fill="#55B948" d="M787.132,32.827c2.739-2.488,4.579-4.476,4.579-6.066c0-1.001-0.56-1.546-1.428-1.546
					c-0.751,0-1.34,0.501-1.855,1.061l-1.429-1.414c1.075-1.134,2.076-1.693,3.638-1.693c2.12,0,3.593,1.354,3.593,3.445
					c0,1.885-1.62,3.961-3.299,5.654c0.545-0.074,1.296-0.147,1.782-0.147h2.017v2.208h-7.598V32.827z"/>
				<path fill="#55B948" d="M802.332,26.024c-0.354-0.383-1.031-0.766-1.635-0.766c-1.134,0-2.032,0.81-2.135,3.195
					c0.545-0.692,1.473-1.075,2.091-1.075c1.825,0,3.21,1.061,3.21,3.446c0,2.327-1.649,3.71-3.607,3.71
					c-2.063,0-4.094-1.605-4.094-5.595c0-3.961,2.091-5.772,4.358-5.772c1.442,0,2.503,0.604,3.195,1.31L802.332,26.024z
					 M801.463,30.824c0-1.208-0.589-1.605-1.311-1.605c-0.545,0-1.104,0.265-1.546,0.986c0.221,1.826,0.897,2.371,1.59,2.371
					S801.463,32.061,801.463,30.824z"/>
			</g>
			<g>
				<path fill="#55B948" d="M816.474,32.827c2.739-2.488,4.579-4.476,4.579-6.066c0-1.001-0.559-1.546-1.428-1.546
					c-0.751,0-1.34,0.501-1.855,1.061l-1.428-1.414c1.074-1.134,2.076-1.693,3.637-1.693c2.12,0,3.593,1.354,3.593,3.445
					c0,1.885-1.62,3.961-3.298,5.654c0.544-0.074,1.295-0.147,1.781-0.147h2.018v2.208h-7.599V32.827z"/>
				<path fill="#55B948" d="M830.289,25.553h-4.711v-2.179h7.509v1.59c-2.532,3.019-2.798,5.08-2.989,9.365h-2.635
					C827.668,30.721,828.229,28.409,830.289,25.553z"/>
			</g>
			<g>
				<path fill="#55B948" d="M845.816,32.827c2.738-2.488,4.579-4.476,4.579-6.066c0-1.001-0.56-1.546-1.428-1.546
					c-0.751,0-1.34,0.501-1.855,1.061l-1.429-1.414c1.075-1.134,2.076-1.693,3.637-1.693c2.121,0,3.594,1.354,3.594,3.445
					c0,1.885-1.62,3.961-3.299,5.654c0.545-0.074,1.296-0.147,1.782-0.147h2.017v2.208h-7.598V32.827z"/>
				<path fill="#55B948" d="M854.876,31.604c0-1.369,0.78-2.223,1.796-2.768v-0.074c-0.854-0.633-1.428-1.473-1.428-2.636
					c0-1.826,1.443-2.959,3.475-2.959c1.974,0,3.284,1.148,3.284,2.93c0,1.045-0.634,1.914-1.384,2.429v0.074
					c1.045,0.545,1.84,1.458,1.84,2.96c0,1.693-1.531,2.974-3.828,2.974C856.48,34.535,854.876,33.342,854.876,31.604z
					 M860.029,31.458c0-0.958-0.839-1.37-2.179-1.944c-0.442,0.427-0.736,1.089-0.736,1.782c0,0.898,0.722,1.414,1.575,1.414
					C859.44,32.709,860.029,32.326,860.029,31.458z M859.883,26.274c0-0.795-0.457-1.296-1.237-1.296
					c-0.589,0-1.104,0.368-1.104,1.148c0,0.869,0.678,1.34,1.752,1.767C859.705,27.393,859.883,26.833,859.883,26.274z"/>
			</g>
			<g>
				<path fill="#55B948" d="M875.158,32.827c2.739-2.488,4.58-4.476,4.58-6.066c0-1.001-0.56-1.546-1.429-1.546
					c-0.751,0-1.34,0.501-1.854,1.061l-1.429-1.414c1.075-1.134,2.076-1.693,3.637-1.693c2.12,0,3.593,1.354,3.593,3.445
					c0,1.885-1.619,3.961-3.298,5.654c0.544-0.074,1.296-0.147,1.781-0.147h2.018v2.208h-7.599V32.827z"/>
				<path fill="#55B948" d="M885.588,31.664c0.368,0.397,1.045,0.751,1.679,0.751c1.118,0,2.002-0.795,2.105-3.195
					c-0.53,0.707-1.458,1.104-2.091,1.104c-1.841,0-3.21-1.09-3.21-3.446c0-2.327,1.649-3.71,3.607-3.71
					c2.076,0,4.093,1.575,4.093,5.551c0,3.976-2.09,5.816-4.328,5.816c-1.473,0-2.533-0.618-3.225-1.311L885.588,31.664z
					 M889.328,27.452c-0.221-1.811-0.913-2.327-1.591-2.327c-0.692,0-1.28,0.486-1.28,1.752c0,1.178,0.588,1.605,1.324,1.605
					C888.312,28.483,888.9,28.203,889.328,27.452z"/>
			</g>
		</g>
		<line fill="none" stroke="#122733" stroke-width="3" stroke-miterlimit="10" x1="47.338" y1="16" x2="47.338" y2="240.756"/>
		<g>
			<g>
				<path fill="#FF6677" d="M34.485,31.811h-3.239l-0.633,2.518h-2.68l3.401-10.955h3.151l3.402,10.955h-2.769L34.485,31.811z
					 M33.984,29.779l-0.235-0.928c-0.295-1.09-0.574-2.4-0.869-3.519h-0.059c-0.265,1.148-0.56,2.429-0.839,3.519l-0.236,0.928
					H33.984z"/>
			</g>
			<g>
				<path fill="#FF6677" d="M29.059,48.335h3.829c2.268,0,4.079,0.604,4.079,2.709c0,0.972-0.545,2.032-1.428,2.371v0.059
					c1.104,0.294,1.944,1.119,1.944,2.577c0,2.238-1.899,3.239-4.285,3.239h-4.138V48.335z M32.784,52.679
					c1.119,0,1.62-0.486,1.62-1.237c0-0.781-0.515-1.104-1.62-1.104h-1.09v2.341H32.784z M33.005,57.273
					c1.267,0,1.914-0.457,1.914-1.399c0-0.898-0.633-1.252-1.914-1.252h-1.311v2.651H33.005z"/>
			</g>
			<g>
				<path fill="#FF6677" d="M28.765,78.833c0-3.651,2.444-5.742,5.227-5.742c1.428,0,2.577,0.663,3.328,1.428l-1.384,1.679
					c-0.545-0.501-1.119-0.854-1.9-0.854c-1.414,0-2.577,1.267-2.577,3.402c0,2.179,1.001,3.445,2.547,3.445
					c0.869,0,1.576-0.442,2.091-1.001l1.384,1.649c-0.928,1.075-2.15,1.62-3.578,1.62C31.12,84.458,28.765,82.543,28.765,78.833z"/>
			</g>
			<g>
				<path fill="#FF6677" d="M28.809,98.257h3.151c3.342,0,5.551,1.605,5.551,5.418c0,3.814-2.209,5.537-5.404,5.537h-3.298V98.257z
					 M31.797,107.092c1.767,0,3.019-0.81,3.019-3.417c0-2.606-1.251-3.328-3.019-3.328h-0.353v6.744H31.797z"/>
			</g>
			<g>
				<path fill="#FF6677" d="M29.538,123.219h6.95v2.179h-4.314v2.032h3.667v2.209h-3.667v2.327h4.476v2.208h-7.112V123.219z"/>
			</g>
			<g>
				<path fill="#FF6677" d="M29.729,148.181h6.995v2.18h-4.359v2.399h3.74v2.194h-3.74v4.182h-2.636V148.181z"/>
			</g>
			<g>
				<path fill="#FF6677" d="M28.278,178.678c0-3.651,2.459-5.743,5.389-5.743c1.605,0,2.753,0.678,3.504,1.429l-1.398,1.679
					c-0.53-0.486-1.104-0.854-2.018-0.854c-1.62,0-2.783,1.267-2.783,3.401c0,2.18,0.972,3.445,3.004,3.445
					c0.397,0,0.81-0.103,1.046-0.279v-1.768h-1.738v-2.148h4.079v5.123c-0.766,0.736-2.12,1.34-3.651,1.34
					C30.664,184.302,28.278,182.388,28.278,178.678z"/>
			</g>
			<g>
				<path fill="#FF6677" d="M28.477,198.103h2.636v4.168h3.607v-4.168h2.606v10.955H34.72v-4.506h-3.607v4.506h-2.636V198.103z"/>
			</g>
			<g>
				<path fill="#FF6677" d="M31.6,223.066h2.636v10.955H31.6V223.066z"/>
			</g>
		</g>
	</g>
	<rect x="282.044" y="140.865" fill="#55B948" width="29.338" height="24.973"/>
	<rect x="546.076" y="90.76" fill="#55B948" width="29.338" height="24.973"/>
	<rect x="810.158" y="115.732" fill="#55B948" width="29.338" height="24.973"/>
	<g>
		<g>
			<path fill="#0083CA" d="M327.5,148.371v0.832h3.426v8.195c0,0.88-0.128,1.424-0.672,1.776c-0.528,0.337-1.152,0.368-1.985,0.368
				c-0.064-0.576-0.336-1.456-0.592-2.001c0.32,0.017,0.72,0.017,0.865,0.017c0.144,0,0.192-0.049,0.192-0.208v-1.153H327.5v3.266
				h-2.225v-3.266h-1.152v3.378h-2.161v-8.083c-0.352,0.384-0.656,0.784-0.928,1.104c0.352,0.448,0.656,0.848,0.784,1.008
				l-1.2,1.553c-0.16-0.32-0.384-0.72-0.64-1.152v5.507h-2.081v-4.994c-0.288,0.399-0.592,0.752-0.88,1.056
				c-0.192-0.544-0.752-1.632-1.088-2.001c1.12-1.072,2.209-2.833,2.945-4.545h-2.385v-2.001h1.825
				c-0.272-0.528-0.672-1.2-1.024-1.713l1.857-0.849c0.48,0.608,1.008,1.408,1.264,1.953l-1.2,0.608h0.656l0.384-0.08l1.168,0.736
				c-0.368,1.152-0.864,2.353-1.44,3.474v0.111l0.192,0.225c0.256-0.433,0.512-0.929,0.672-1.297l1.12,0.801v-1.793h3.313v-0.832
				h-3.585v-2.098h3.585v-1.872h2.225v1.872h1.409c-0.368-0.271-0.784-0.544-1.168-0.752l1.297-1.217
				c0.736,0.368,1.665,0.961,2.113,1.425l-0.56,0.544h0.784v2.098H327.5z M324.123,151.139v0.753h1.152v-0.753H324.123z
				 M325.275,154.42v-0.752h-1.152v0.752H325.275z M327.5,151.139v0.753h1.233v-0.753H327.5z M328.733,154.42v-0.752H327.5v0.752
				H328.733z"/>
			<path fill="#0083CA" d="M337.082,154.597c-0.032-0.192-0.064-0.433-0.112-0.673c-3.073,0.433-3.697,0.593-4.098,0.8
				c-0.112-0.432-0.464-1.504-0.736-2.08c0.464-0.112,0.816-0.448,1.345-1.041c0.176-0.176,0.464-0.527,0.8-0.992
				c-0.96,0.128-1.296,0.225-1.536,0.336c-0.112-0.416-0.448-1.424-0.688-1.969c0.336-0.096,0.624-0.384,0.944-0.864
				c0.336-0.448,1.345-2.192,1.889-3.89l2.081,0.865c-0.561,1.232-1.313,2.528-2.113,3.633l0.72-0.048
				c0.4-0.656,0.784-1.36,1.088-2.049l1.937,1.249c-0.593,1.072-1.329,2.16-2.129,3.169l1.408-0.464
				c0.4,1.088,0.833,2.513,0.993,3.377L337.082,154.597z M334.697,155.414c-0.08,1.536-0.336,3.169-0.672,4.193
				c-0.448-0.24-1.376-0.528-1.873-0.673c0.368-0.944,0.544-2.448,0.608-3.825L334.697,155.414z M336.521,155.044
				c0.224,1.152,0.4,2.625,0.464,3.618l-1.809,0.384c-0.016-0.992-0.192-2.513-0.368-3.666L336.521,155.044z M336.538,152.179
				c-0.08-0.304-0.176-0.607-0.272-0.896c-0.272,0.369-0.577,0.705-0.865,1.041L336.538,152.179z M339.066,152.628h7.459v6.979
				h-2.385v-0.736h-2.801v0.736h-2.273v-2.049l-1.665,0.592c-0.128-0.832-0.48-2.129-0.784-3.105l1.601-0.527
				c0.336,0.912,0.656,2.064,0.848,2.881V152.628z M344.013,144.96c-0.08,0.209-0.16,0.416-0.256,0.608
				c0.993,1.473,2.545,2.993,3.986,3.922c-0.544,0.433-1.329,1.28-1.713,1.872c-0.272-0.224-0.56-0.479-0.832-0.752v1.024h-5.347
				v-0.769c-0.288,0.24-0.576,0.465-0.88,0.673c-0.32-0.48-1.089-1.313-1.569-1.696c2-1.232,3.666-3.378,4.514-5.522L344.013,144.96
				z M344.205,149.539c-0.528-0.608-1.041-1.297-1.489-1.984c-0.448,0.72-0.944,1.376-1.488,1.984H344.205z M341.339,154.661v2.177
				h2.801v-2.177H341.339z"/>
			<path fill="#0083CA" d="M354.586,154.741l0.224,2.145c-2.033,0.48-4.226,0.961-5.955,1.345l-0.48-2.289
				c0.896-0.144,2.033-0.352,3.233-0.592c0.384-1.568,0.704-3.954,0.832-5.746l2.145,0.336c-0.304,1.681-0.705,3.585-1.073,5.025
				L354.586,154.741z M355.034,149.203h-6.563v-2.129h2.577c-0.176-0.624-0.512-1.44-0.816-2.064l2.001-0.561
				c0.416,0.704,0.816,1.648,0.992,2.272l-1.104,0.353h2.913V149.203z M349.496,155.141c-0.032-1.393-0.288-3.506-0.544-5.122
				l1.776-0.336c0.304,1.633,0.561,3.665,0.656,5.074L349.496,155.141z M359.836,149.331v2.529h3.057v7.651h-2.385v-0.689h-3.217
				v0.753h-2.257v-7.715h2.401v-7.491h2.401v2.753h3.538v2.209H359.836z M360.509,154.021h-3.217v2.641h3.217V154.021z"/>
		</g>
		<g>
			<path fill="#FFFFFF" d="M321.962,162.575c-0.382,0-0.747-0.071-1.083-0.201c-0.285,0.09-0.588,0.138-0.902,0.138h-2.081
				c-1.657,0-3-1.343-3-3v-1.815c-0.313-0.313-0.558-0.694-0.709-1.125c-0.084-0.238-0.391-0.833-0.539-1.049
				c-1.031-1.204-0.948-3.014,0.205-4.117c0.123-0.117,0.249-0.253,0.376-0.402c-0.462-0.528-0.742-1.219-0.742-1.976v-2.001
				c0-0.799,0.312-1.524,0.821-2.062c0.018-0.151,0.047-0.303,0.088-0.452c0.236-0.854,0.838-1.56,1.644-1.928l1.857-0.849
				c0.401-0.184,0.826-0.271,1.246-0.271c0.897,0,1.773,0.402,2.356,1.142c0.154,0.195,0.324,0.422,0.498,0.667h0.497
				c0.446-1.098,1.523-1.872,2.781-1.872h2.225c0.201,0,0.397,0.02,0.587,0.058c0.307-0.103,0.628-0.154,0.951-0.154
				c0.456,0,0.915,0.104,1.341,0.316c0.314,0.157,1.933,0.994,2.928,2.023c0.344,0.356,0.583,0.775,0.716,1.22
				c0.224,0.42,0.351,0.899,0.351,1.409v2.098c0,0.579-0.164,1.12-0.448,1.578v7.449c0,0.735,0,2.973-2.042,4.295
				c-1.333,0.85-2.706,0.85-3.615,0.85c-0.238,0-0.471-0.028-0.694-0.081c-0.024,0.001-2.299,0.001-2.299,0.001
				c-0.098,0-0.194-0.005-0.289-0.014c-0.273,0.082-0.563,0.126-0.863,0.126H321.962z"/>
			<path fill="#FFFFFF" d="M334.024,162.607c-0.485,0-0.968-0.117-1.406-0.35c-0.129-0.063-0.591-0.234-1.306-0.443
				c-0.808-0.235-1.48-0.799-1.852-1.554c-0.372-0.755-0.41-1.632-0.104-2.416c0.143-0.366,0.335-1.339,0.406-2.875
				c0.002-0.041,0.004-0.083,0.008-0.125c-0.117-0.346-0.255-0.722-0.349-0.92c-0.385-0.815-0.383-1.761,0.006-2.574
				c0.057-0.118,0.12-0.231,0.19-0.339c-0.106-0.311-0.225-0.634-0.309-0.823c-0.35-0.794-0.339-1.7,0.03-2.485
				c0.262-0.558,0.686-1.016,1.208-1.319c0.017-0.022,0.034-0.046,0.051-0.068c0.174-0.245,0.996-1.646,1.432-3.007
				c0.256-0.799,0.835-1.454,1.597-1.807c0.399-0.185,0.829-0.277,1.26-0.277c0.391,0,0.783,0.076,1.152,0.229l2.081,0.865
				c0.411,0.171,0.773,0.429,1.067,0.751c0.496-1.084,1.576-1.75,2.727-1.75c0.29,0,0.585,0.043,0.875,0.132l2.097,0.64
				c0.796,0.242,1.456,0.805,1.82,1.553c0.191,0.39,0.292,0.813,0.304,1.237c0.705,0.808,1.567,1.579,2.356,2.088
				c0.813,0.523,1.323,1.407,1.371,2.373c0.048,0.966-0.373,1.896-1.13,2.497c-0.046,0.037-0.099,0.082-0.155,0.134
				c0.047,0.211,0.072,0.431,0.072,0.655v6.979c0,1.657-1.343,3-3,3h-2.385c-0.506,0-0.982-0.125-1.4-0.347
				c-0.418,0.222-0.895,0.347-1.401,0.347h-2.273c-0.824,0-1.571-0.332-2.113-0.871l-1.073,0.228
				c-0.223,0.176-0.472,0.32-0.741,0.429C334.781,162.536,334.402,162.607,334.024,162.607z"/>
			<path fill="#FFFFFF" d="M355.034,162.575c-1.312,0-2.426-0.842-2.834-2.015c-0.665,0.149-2.694,0.599-2.694,0.599
				c-0.215,0.048-0.433,0.071-0.65,0.071c-0.572,0-1.138-0.164-1.626-0.479c-0.674-0.435-1.146-1.121-1.31-1.906l-0.48-2.289
				c-0.168-0.803,0-1.64,0.464-2.315c0.142-0.207,0.308-0.393,0.493-0.555c-0.076-0.811-0.19-1.747-0.331-2.689
				c-0.374-0.5-0.595-1.121-0.595-1.794v-2.129c0-1.247,0.761-2.317,1.845-2.77c0.043-0.179,0.103-0.354,0.179-0.523
				c0.365-0.813,1.071-1.42,1.928-1.66l2.001-0.561c0.269-0.075,0.541-0.111,0.809-0.111c1.038,0,2.027,0.54,2.578,1.466
				c0.512-0.922,1.496-1.546,2.625-1.546h2.401c1.574,0,2.864,1.212,2.99,2.753h0.548c1.657,0,3,1.343,3,3v2.209
				c0,0.662-0.214,1.273-0.578,1.77c0.063,0.243,0.097,0.497,0.097,0.76v7.651c0,1.657-1.343,3-3,3h-2.385
				c-0.571,0-1.104-0.159-1.559-0.437c-0.475,0.316-1.045,0.5-1.659,0.5H355.034z"/>
		</g>
		<g>
			<path fill="#55B948" d="M327.5,148.371v0.832h3.426v8.195c0,0.88-0.128,1.424-0.672,1.776c-0.528,0.337-1.152,0.368-1.985,0.368
				c-0.064-0.576-0.336-1.456-0.592-2.001c0.32,0.017,0.72,0.017,0.865,0.017c0.144,0,0.192-0.049,0.192-0.208v-1.153H327.5v3.266
				h-2.225v-3.266h-1.152v3.378h-2.161v-8.083c-0.352,0.384-0.656,0.784-0.928,1.104c0.352,0.448,0.656,0.848,0.784,1.008
				l-1.2,1.553c-0.16-0.32-0.384-0.72-0.64-1.152v5.507h-2.081v-4.994c-0.288,0.399-0.592,0.752-0.88,1.056
				c-0.192-0.544-0.752-1.632-1.088-2.001c1.12-1.072,2.209-2.833,2.945-4.545h-2.385v-2.001h1.825
				c-0.272-0.528-0.672-1.2-1.024-1.713l1.857-0.849c0.48,0.608,1.008,1.408,1.264,1.953l-1.2,0.608h0.656l0.384-0.08l1.168,0.736
				c-0.368,1.152-0.864,2.353-1.44,3.474v0.111l0.192,0.225c0.256-0.433,0.512-0.929,0.672-1.297l1.12,0.801v-1.793h3.313v-0.832
				h-3.585v-2.098h3.585v-1.872h2.225v1.872h1.409c-0.368-0.271-0.784-0.544-1.168-0.752l1.297-1.217
				c0.736,0.368,1.665,0.961,2.113,1.425l-0.56,0.544h0.784v2.098H327.5z M324.123,151.139v0.753h1.152v-0.753H324.123z
				 M325.275,154.42v-0.752h-1.152v0.752H325.275z M327.5,151.139v0.753h1.233v-0.753H327.5z M328.733,154.42v-0.752H327.5v0.752
				H328.733z"/>
			<path fill="#55B948" d="M337.082,154.597c-0.032-0.192-0.064-0.433-0.112-0.673c-3.073,0.433-3.697,0.593-4.098,0.8
				c-0.112-0.432-0.464-1.504-0.736-2.08c0.464-0.112,0.816-0.448,1.345-1.041c0.176-0.176,0.464-0.527,0.8-0.992
				c-0.96,0.128-1.296,0.225-1.536,0.336c-0.112-0.416-0.448-1.424-0.688-1.969c0.336-0.096,0.624-0.384,0.944-0.864
				c0.336-0.448,1.345-2.192,1.889-3.89l2.081,0.865c-0.561,1.232-1.313,2.528-2.113,3.633l0.72-0.048
				c0.4-0.656,0.784-1.36,1.088-2.049l1.937,1.249c-0.593,1.072-1.329,2.16-2.129,3.169l1.408-0.464
				c0.4,1.088,0.833,2.513,0.993,3.377L337.082,154.597z M334.697,155.414c-0.08,1.536-0.336,3.169-0.672,4.193
				c-0.448-0.24-1.376-0.528-1.873-0.673c0.368-0.944,0.544-2.448,0.608-3.825L334.697,155.414z M336.521,155.044
				c0.224,1.152,0.4,2.625,0.464,3.618l-1.809,0.384c-0.016-0.992-0.192-2.513-0.368-3.666L336.521,155.044z M336.538,152.179
				c-0.08-0.304-0.176-0.607-0.272-0.896c-0.272,0.369-0.577,0.705-0.865,1.041L336.538,152.179z M339.066,152.628h7.459v6.979
				h-2.385v-0.736h-2.801v0.736h-2.273v-2.049l-1.665,0.592c-0.128-0.832-0.48-2.129-0.784-3.105l1.601-0.527
				c0.336,0.912,0.656,2.064,0.848,2.881V152.628z M344.013,144.96c-0.08,0.209-0.16,0.416-0.256,0.608
				c0.993,1.473,2.545,2.993,3.986,3.922c-0.544,0.433-1.329,1.28-1.713,1.872c-0.272-0.224-0.56-0.479-0.832-0.752v1.024h-5.347
				v-0.769c-0.288,0.24-0.576,0.465-0.88,0.673c-0.32-0.48-1.089-1.313-1.569-1.696c2-1.232,3.666-3.378,4.514-5.522L344.013,144.96
				z M344.205,149.539c-0.528-0.608-1.041-1.297-1.489-1.984c-0.448,0.72-0.944,1.376-1.488,1.984H344.205z M341.339,154.661v2.177
				h2.801v-2.177H341.339z"/>
			<path fill="#55B948" d="M354.586,154.741l0.224,2.145c-2.033,0.48-4.226,0.961-5.955,1.345l-0.48-2.289
				c0.896-0.144,2.033-0.352,3.233-0.592c0.384-1.568,0.704-3.954,0.832-5.746l2.145,0.336c-0.304,1.681-0.705,3.585-1.073,5.025
				L354.586,154.741z M355.034,149.203h-6.563v-2.129h2.577c-0.176-0.624-0.512-1.44-0.816-2.064l2.001-0.561
				c0.416,0.704,0.816,1.648,0.992,2.272l-1.104,0.353h2.913V149.203z M349.496,155.141c-0.032-1.393-0.288-3.506-0.544-5.122
				l1.776-0.336c0.304,1.633,0.561,3.665,0.656,5.074L349.496,155.141z M359.836,149.331v2.529h3.057v7.651h-2.385v-0.689h-3.217
				v0.753h-2.257v-7.715h2.401v-7.491h2.401v2.753h3.538v2.209H359.836z M360.509,154.021h-3.217v2.641h3.217V154.021z"/>
		</g>
	</g>
	<g>
		<path fill="#E29201" d="M283.766,253.037v0.833h3.426v8.195c0,0.88-0.128,1.425-0.672,1.776c-0.528,0.336-1.152,0.368-1.985,0.368
			c-0.064-0.576-0.336-1.456-0.592-2.001c0.32,0.017,0.72,0.017,0.865,0.017c0.144,0,0.192-0.048,0.192-0.208v-1.152h-1.233v3.265
			h-2.225v-3.265h-1.152v3.377h-2.161v-8.083c-0.352,0.384-0.656,0.784-0.928,1.104c0.352,0.447,0.656,0.848,0.784,1.008l-1.2,1.553
			c-0.16-0.32-0.384-0.721-0.64-1.152v5.506h-2.081v-4.994c-0.288,0.4-0.592,0.753-0.88,1.057c-0.192-0.544-0.752-1.633-1.088-2
			c1.12-1.073,2.209-2.834,2.945-4.547h-2.385v-2h1.825c-0.272-0.528-0.672-1.201-1.024-1.713l1.857-0.849
			c0.48,0.608,1.008,1.409,1.264,1.953l-1.2,0.608h0.656l0.384-0.08l1.168,0.736c-0.368,1.152-0.864,2.353-1.44,3.473v0.112
			l0.192,0.225c0.256-0.433,0.512-0.929,0.672-1.297l1.12,0.8v-1.792h3.313v-0.833h-3.585v-2.097h3.585v-1.872h2.225v1.872h1.409
			c-0.368-0.271-0.784-0.544-1.168-0.752l1.297-1.217c0.736,0.368,1.665,0.961,2.113,1.425l-0.56,0.544h0.784v2.097H283.766z
			 M280.389,255.806v0.752h1.152v-0.752H280.389z M281.541,259.087v-0.752h-1.152v0.752H281.541z M283.766,255.806v0.752h1.233
			v-0.752H283.766z M284.999,259.087v-0.752h-1.233v0.752H284.999z"/>
		<path fill="#E29201" d="M293.347,259.263c-0.032-0.191-0.064-0.432-0.112-0.672c-3.073,0.432-3.697,0.592-4.098,0.801
			c-0.112-0.433-0.464-1.505-0.736-2.081c0.464-0.112,0.816-0.448,1.345-1.04c0.176-0.177,0.464-0.529,0.8-0.993
			c-0.96,0.128-1.296,0.225-1.536,0.337c-0.112-0.417-0.448-1.425-0.688-1.969c0.336-0.097,0.624-0.385,0.944-0.865
			c0.336-0.448,1.345-2.192,1.889-3.89l2.081,0.864c-0.561,1.232-1.313,2.529-2.113,3.634l0.72-0.048
			c0.4-0.656,0.784-1.36,1.088-2.049l1.937,1.248c-0.593,1.072-1.329,2.161-2.129,3.17l1.408-0.465
			c0.4,1.089,0.833,2.514,0.993,3.378L293.347,259.263z M290.962,260.08c-0.08,1.537-0.336,3.17-0.672,4.194
			c-0.448-0.24-1.376-0.528-1.873-0.673c0.368-0.944,0.544-2.449,0.608-3.825L290.962,260.08z M292.787,259.712
			c0.224,1.152,0.4,2.625,0.464,3.617l-1.809,0.384c-0.016-0.992-0.192-2.513-0.368-3.665L292.787,259.712z M292.803,256.847
			c-0.08-0.305-0.176-0.608-0.272-0.896c-0.272,0.367-0.577,0.704-0.865,1.04L292.803,256.847z M295.332,257.294h7.459v6.979h-2.385
			v-0.736h-2.801v0.736h-2.273v-2.049l-1.665,0.592c-0.128-0.832-0.48-2.129-0.784-3.104l1.601-0.529
			c0.336,0.913,0.656,2.065,0.848,2.882V257.294z M300.278,249.627c-0.08,0.208-0.16,0.417-0.256,0.608
			c0.993,1.473,2.545,2.993,3.986,3.922c-0.544,0.432-1.329,1.28-1.713,1.873c-0.272-0.225-0.56-0.48-0.832-0.753v1.024h-5.347
			v-0.768c-0.288,0.239-0.576,0.464-0.88,0.672c-0.32-0.48-1.089-1.313-1.569-1.697c2-1.232,3.666-3.377,4.514-5.521
			L300.278,249.627z M300.47,254.206c-0.528-0.608-1.041-1.296-1.489-1.985c-0.448,0.721-0.944,1.377-1.488,1.985H300.47z
			 M297.605,259.328v2.177h2.801v-2.177H297.605z"/>
		<path fill="#E29201" d="M316.07,261.649c1.104,0,2.417-0.097,3.137-0.24c0.064,0.56,0.192,1.616,0.305,2.161
			c-0.705,0.191-2.241,0.208-3.57,0.208h-5.906c-3.057,0-4.466-0.929-4.466-4.226v-8.004h-0.625v-2.033h13.766v2.033h-10.868v8.164
			c0,1.408,0.4,1.937,2.001,1.937H316.07z M308.259,256.59h4.562v4.45h-4.562V256.59z M316.342,256.111h-6.499v-3.986h6.499V256.111
			z M310.116,259.52h0.736v-1.409h-0.736V259.52z M314.037,253.597h-2.033v1.024h2.033V253.597z M318.007,261.041h-4.674v-4.45
			h4.674V261.041z M316.006,258.111h-0.784v1.409h0.784V258.111z"/>
	</g>
	<g>
		<path fill="#E29201" d="M547.848,253.037v0.833h3.425v8.195c0,0.88-0.128,1.425-0.672,1.776c-0.528,0.336-1.152,0.368-1.985,0.368
			c-0.063-0.576-0.336-1.456-0.592-2.001c0.32,0.017,0.721,0.017,0.864,0.017c0.145,0,0.192-0.048,0.192-0.208v-1.152h-1.232v3.265
			h-2.225v-3.265h-1.153v3.377h-2.16v-8.083c-0.353,0.384-0.656,0.784-0.929,1.104c0.353,0.447,0.656,0.848,0.784,1.008l-1.2,1.553
			c-0.16-0.32-0.385-0.721-0.641-1.152v5.506h-2.081v-4.994c-0.288,0.4-0.592,0.753-0.88,1.057c-0.192-0.544-0.752-1.633-1.089-2
			c1.121-1.073,2.209-2.834,2.945-4.547h-2.385v-2h1.825c-0.272-0.528-0.673-1.201-1.024-1.713l1.856-0.849
			c0.48,0.608,1.008,1.409,1.265,1.953l-1.2,0.608h0.656l0.384-0.08l1.168,0.736c-0.368,1.152-0.864,2.353-1.44,3.473v0.112
			l0.192,0.225c0.256-0.433,0.512-0.929,0.672-1.297l1.121,0.8v-1.792h3.313v-0.833h-3.586v-2.097h3.586v-1.872h2.225v1.872h1.408
			c-0.368-0.271-0.784-0.544-1.168-0.752l1.296-1.217c0.736,0.368,1.665,0.961,2.113,1.425l-0.561,0.544h0.784v2.097H547.848z
			 M544.47,255.806v0.752h1.153v-0.752H544.47z M545.623,259.087v-0.752h-1.153v0.752H545.623z M547.848,255.806v0.752h1.232v-0.752
			H547.848z M549.08,259.087v-0.752h-1.232v0.752H549.08z"/>
		<path fill="#E29201" d="M557.429,259.263c-0.032-0.191-0.063-0.432-0.112-0.672c-3.073,0.432-3.697,0.592-4.098,0.801
			c-0.111-0.433-0.464-1.505-0.736-2.081c0.465-0.112,0.816-0.448,1.345-1.04c0.177-0.177,0.465-0.529,0.801-0.993
			c-0.961,0.128-1.297,0.225-1.537,0.337c-0.112-0.417-0.448-1.425-0.688-1.969c0.337-0.097,0.625-0.385,0.945-0.865
			c0.336-0.448,1.344-2.192,1.889-3.89l2.08,0.864c-0.56,1.232-1.313,2.529-2.112,3.634l0.72-0.048
			c0.4-0.656,0.785-1.36,1.089-2.049l1.937,1.248c-0.592,1.072-1.328,2.161-2.129,3.17l1.409-0.465
			c0.399,1.089,0.832,2.514,0.992,3.378L557.429,259.263z M555.044,260.08c-0.08,1.537-0.336,3.17-0.673,4.194
			c-0.447-0.24-1.376-0.528-1.872-0.673c0.368-0.944,0.544-2.449,0.608-3.825L555.044,260.08z M556.869,259.712
			c0.224,1.152,0.399,2.625,0.464,3.617l-1.809,0.384c-0.017-0.992-0.192-2.513-0.368-3.665L556.869,259.712z M556.885,256.847
			c-0.08-0.305-0.176-0.608-0.272-0.896c-0.271,0.367-0.576,0.704-0.864,1.04L556.885,256.847z M559.414,257.294h7.459v6.979h-2.386
			v-0.736h-2.801v0.736h-2.272v-2.049l-1.665,0.592c-0.128-0.832-0.48-2.129-0.784-3.104l1.601-0.529
			c0.336,0.913,0.656,2.065,0.849,2.882V257.294z M564.359,249.627c-0.08,0.208-0.16,0.417-0.256,0.608
			c0.992,1.473,2.545,2.993,3.985,3.922c-0.544,0.432-1.328,1.28-1.712,1.873c-0.272-0.225-0.561-0.48-0.833-0.753v1.024h-5.346
			v-0.768c-0.288,0.239-0.576,0.464-0.881,0.672c-0.319-0.48-1.088-1.313-1.568-1.697c2.001-1.232,3.665-3.377,4.514-5.521
			L564.359,249.627z M564.552,254.206c-0.528-0.608-1.04-1.296-1.488-1.985c-0.448,0.721-0.944,1.377-1.489,1.985H564.552z
			 M561.687,259.328v2.177h2.801v-2.177H561.687z"/>
		<path fill="#E29201" d="M580.151,261.649c1.104,0,2.417-0.097,3.138-0.24c0.063,0.56,0.191,1.616,0.304,2.161
			c-0.704,0.191-2.241,0.208-3.569,0.208h-5.906c-3.058,0-4.466-0.929-4.466-4.226v-8.004h-0.624v-2.033h13.766v2.033h-10.869v8.164
			c0,1.408,0.4,1.937,2.001,1.937H580.151z M572.341,256.59h4.562v4.45h-4.562V256.59z M580.424,256.111h-6.499v-3.986h6.499
			V256.111z M574.197,259.52h0.736v-1.409h-0.736V259.52z M578.119,253.597h-2.033v1.024h2.033V253.597z M582.088,261.041h-4.674
			v-4.45h4.674V261.041z M580.088,258.111h-0.785v1.409h0.785V258.111z"/>
	</g>
	<g>
		<path fill="#E29201" d="M811.93,253.037v0.833h3.425v8.195c0,0.88-0.128,1.425-0.672,1.776c-0.528,0.336-1.152,0.368-1.985,0.368
			c-0.063-0.576-0.336-1.456-0.592-2.001c0.32,0.017,0.721,0.017,0.864,0.017c0.145,0,0.192-0.048,0.192-0.208v-1.152h-1.232v3.265
			h-2.225v-3.265h-1.153v3.377h-2.16v-8.083c-0.353,0.384-0.656,0.784-0.929,1.104c0.353,0.447,0.656,0.848,0.784,1.008l-1.2,1.553
			c-0.16-0.32-0.385-0.721-0.641-1.152v5.506h-2.081v-4.994c-0.288,0.4-0.592,0.753-0.88,1.057c-0.192-0.544-0.752-1.633-1.089-2
			c1.121-1.073,2.209-2.834,2.945-4.547h-2.385v-2h1.825c-0.272-0.528-0.673-1.201-1.024-1.713l1.856-0.849
			c0.48,0.608,1.008,1.409,1.265,1.953l-1.2,0.608h0.656l0.384-0.08l1.168,0.736c-0.368,1.152-0.864,2.353-1.44,3.473v0.112
			l0.192,0.225c0.256-0.433,0.512-0.929,0.672-1.297l1.121,0.8v-1.792h3.313v-0.833h-3.586v-2.097h3.586v-1.872h2.225v1.872h1.408
			c-0.368-0.271-0.784-0.544-1.168-0.752l1.296-1.217c0.736,0.368,1.665,0.961,2.113,1.425l-0.561,0.544h0.784v2.097H811.93z
			 M808.552,255.806v0.752h1.153v-0.752H808.552z M809.705,259.087v-0.752h-1.153v0.752H809.705z M811.93,255.806v0.752h1.232
			v-0.752H811.93z M813.162,259.087v-0.752h-1.232v0.752H813.162z"/>
		<path fill="#E29201" d="M821.511,259.263c-0.032-0.191-0.063-0.432-0.112-0.672c-3.073,0.432-3.697,0.592-4.098,0.801
			c-0.111-0.433-0.464-1.505-0.736-2.081c0.465-0.112,0.816-0.448,1.345-1.04c0.177-0.177,0.465-0.529,0.801-0.993
			c-0.961,0.128-1.297,0.225-1.537,0.337c-0.112-0.417-0.448-1.425-0.688-1.969c0.337-0.097,0.625-0.385,0.945-0.865
			c0.336-0.448,1.344-2.192,1.889-3.89l2.08,0.864c-0.56,1.232-1.313,2.529-2.112,3.634l0.72-0.048
			c0.4-0.656,0.785-1.36,1.089-2.049l1.937,1.248c-0.592,1.072-1.328,2.161-2.129,3.17l1.409-0.465
			c0.399,1.089,0.832,2.514,0.992,3.378L821.511,259.263z M819.126,260.08c-0.08,1.537-0.336,3.17-0.673,4.194
			c-0.447-0.24-1.376-0.528-1.872-0.673c0.368-0.944,0.544-2.449,0.608-3.825L819.126,260.08z M820.951,259.712
			c0.224,1.152,0.399,2.625,0.464,3.617l-1.809,0.384c-0.017-0.992-0.192-2.513-0.368-3.665L820.951,259.712z M820.967,256.847
			c-0.08-0.305-0.176-0.608-0.272-0.896c-0.271,0.367-0.576,0.704-0.864,1.04L820.967,256.847z M823.496,257.294h7.459v6.979h-2.386
			v-0.736h-2.801v0.736h-2.272v-2.049l-1.665,0.592c-0.128-0.832-0.48-2.129-0.784-3.104l1.601-0.529
			c0.336,0.913,0.656,2.065,0.849,2.882V257.294z M828.441,249.627c-0.08,0.208-0.16,0.417-0.256,0.608
			c0.992,1.473,2.545,2.993,3.985,3.922c-0.544,0.432-1.328,1.28-1.712,1.873c-0.272-0.225-0.561-0.48-0.833-0.753v1.024h-5.346
			v-0.768c-0.288,0.239-0.576,0.464-0.881,0.672c-0.319-0.48-1.088-1.313-1.568-1.697c2.001-1.232,3.665-3.377,4.514-5.521
			L828.441,249.627z M828.634,254.206c-0.528-0.608-1.04-1.296-1.488-1.985c-0.448,0.721-0.944,1.377-1.489,1.985H828.634z
			 M825.769,259.328v2.177h2.801v-2.177H825.769z"/>
		<path fill="#E29201" d="M844.233,261.649c1.104,0,2.417-0.097,3.138-0.24c0.063,0.56,0.191,1.616,0.304,2.161
			c-0.704,0.191-2.241,0.208-3.569,0.208h-5.906c-3.058,0-4.466-0.929-4.466-4.226v-8.004h-0.624v-2.033h13.766v2.033h-10.869v8.164
			c0,1.408,0.4,1.937,2.001,1.937H844.233z M836.423,256.59h4.562v4.45h-4.562V256.59z M844.506,256.111h-6.499v-3.986h6.499
			V256.111z M838.279,259.52h0.736v-1.409h-0.736V259.52z M842.201,253.597h-2.033v1.024h2.033V253.597z M846.17,261.041h-4.674
			v-4.45h4.674V261.041z M844.17,258.111h-0.785v1.409h0.785V258.111z"/>
	</g>
	<g>
		<g>
			<path fill="#FFFFFF" d="M850.372,137.602c-0.382,0-0.748-0.071-1.084-0.202c-0.284,0.089-0.587,0.138-0.901,0.138h-2.081
				c-1.657,0-3-1.343-3-3v-1.815c-0.312-0.312-0.557-0.693-0.708-1.122c-0.085-0.239-0.39-0.832-0.537-1.047
				c-1.035-1.204-0.953-3.016,0.202-4.121c0.123-0.117,0.249-0.252,0.377-0.403c-0.462-0.528-0.742-1.219-0.742-1.976v-2
				c0-0.799,0.313-1.524,0.821-2.062c0.018-0.152,0.047-0.303,0.089-0.452c0.236-0.854,0.838-1.56,1.644-1.928l1.856-0.849
				c0.401-0.183,0.826-0.271,1.246-0.271c0.896,0,1.771,0.402,2.355,1.141c0.154,0.195,0.324,0.422,0.499,0.668h0.497
				c0.445-1.098,1.522-1.872,2.78-1.872h2.225c0.201,0,0.397,0.02,0.587,0.058c0.307-0.103,0.627-0.154,0.95-0.154
				c0.456,0,0.915,0.104,1.341,0.317c0.314,0.157,1.935,0.994,2.929,2.023c0.345,0.356,0.583,0.776,0.717,1.221
				c0.223,0.419,0.35,0.898,0.35,1.407v2.097c0,0.579-0.164,1.12-0.448,1.578v7.45c0,0.735,0,2.973-2.042,4.295
				c-1.334,0.85-2.707,0.85-3.615,0.85c-0.238,0-0.471-0.028-0.694-0.081c-0.024,0-2.298,0.001-2.298,0.001
				c-0.098,0-0.194-0.005-0.29-0.014c-0.273,0.082-0.563,0.126-0.863,0.126H850.372z"/>
			<path fill="#FFFFFF" d="M862.434,137.634c-0.485,0-0.969-0.118-1.407-0.351c-0.13-0.062-0.591-0.234-1.304-0.442
				c-0.809-0.235-1.48-0.799-1.853-1.555c-0.372-0.755-0.409-1.631-0.104-2.416c0.143-0.366,0.335-1.338,0.406-2.875
				c0.002-0.042,0.005-0.083,0.009-0.124c-0.116-0.344-0.254-0.718-0.349-0.918c-0.386-0.816-0.384-1.763,0.006-2.577
				c0.056-0.118,0.119-0.231,0.189-0.339c-0.106-0.31-0.225-0.632-0.309-0.821c-0.35-0.793-0.339-1.7,0.029-2.485
				c0.262-0.559,0.687-1.017,1.21-1.321c0.017-0.023,0.033-0.046,0.051-0.069c0.174-0.244,0.995-1.645,1.433-3.007
				c0.257-0.799,0.836-1.454,1.598-1.806c0.398-0.184,0.828-0.277,1.259-0.277c0.392,0,0.782,0.077,1.151,0.23l2.08,0.865
				c0.411,0.171,0.774,0.429,1.068,0.751c0.496-1.084,1.576-1.75,2.726-1.75c0.291,0,0.585,0.042,0.876,0.131l2.097,0.64
				c0.797,0.243,1.456,0.806,1.821,1.554c0.19,0.39,0.291,0.812,0.303,1.236c0.705,0.808,1.567,1.579,2.356,2.088
				c0.813,0.524,1.322,1.408,1.37,2.374s-0.373,1.896-1.13,2.497c-0.047,0.037-0.099,0.082-0.154,0.133
				c0.048,0.211,0.072,0.43,0.072,0.655v6.979c0,1.657-1.343,3-3,3h-2.386c-0.506,0-0.982-0.125-1.4-0.346
				c-0.418,0.221-0.895,0.346-1.4,0.346h-2.272c-0.824,0-1.571-0.333-2.113-0.871l-1.074,0.228
				c-0.224,0.176-0.473,0.321-0.742,0.429C863.188,137.563,862.811,137.634,862.434,137.634z"/>
			<path fill="#FFFFFF" d="M883.444,137.602c-1.312,0-2.427-0.842-2.834-2.014c-0.655,0.146-2.694,0.598-2.694,0.598
				c-0.215,0.048-0.434,0.071-0.65,0.071c-0.572,0-1.138-0.164-1.626-0.479c-0.674-0.435-1.146-1.121-1.31-1.905l-0.48-2.289
				c-0.169-0.803-0.001-1.64,0.464-2.316c0.143-0.207,0.309-0.393,0.494-0.556c-0.076-0.812-0.191-1.749-0.331-2.689
				c-0.374-0.5-0.595-1.121-0.595-1.793v-2.129c0-1.248,0.762-2.317,1.845-2.77c0.043-0.179,0.104-0.355,0.18-0.526
				c0.365-0.811,1.071-1.418,1.928-1.658l2-0.56c0.268-0.075,0.54-0.112,0.809-0.112c1.038,0,2.027,0.541,2.578,1.466
				c0.512-0.922,1.495-1.545,2.624-1.545h2.401c1.573,0,2.864,1.212,2.99,2.753h0.547c1.657,0,3,1.343,3,3v2.209
				c0,0.662-0.214,1.273-0.577,1.769c0.063,0.243,0.098,0.498,0.098,0.76v7.651c0,1.657-1.343,3-3,3h-2.386
				c-0.57,0-1.104-0.159-1.559-0.436c-0.475,0.316-1.045,0.5-1.658,0.5H883.444z"/>
		</g>
		<g>
			<path fill="#55B948" d="M855.91,123.397v0.833h3.425v8.195c0,0.88-0.128,1.424-0.672,1.776c-0.528,0.336-1.152,0.368-1.985,0.368
				c-0.063-0.576-0.336-1.456-0.592-2.001c0.32,0.017,0.721,0.017,0.864,0.017c0.145,0,0.192-0.048,0.192-0.208v-1.153h-1.232v3.265
				h-2.225v-3.265h-1.153v3.377h-2.16v-8.083c-0.353,0.384-0.656,0.784-0.929,1.104c0.353,0.448,0.656,0.848,0.784,1.008l-1.2,1.553
				c-0.16-0.32-0.385-0.72-0.641-1.152v5.506h-2.081v-4.994c-0.288,0.4-0.592,0.752-0.88,1.056c-0.192-0.544-0.752-1.632-1.089-2
				c1.121-1.073,2.209-2.833,2.945-4.546h-2.385v-2h1.825c-0.272-0.528-0.673-1.201-1.024-1.713l1.856-0.849
				c0.48,0.608,1.008,1.409,1.265,1.953l-1.2,0.608h0.656l0.384-0.08l1.168,0.736c-0.368,1.152-0.864,2.353-1.44,3.473v0.112
				l0.192,0.225c0.256-0.433,0.512-0.929,0.672-1.297l1.121,0.8v-1.792h3.313v-0.833H850.1V121.3h3.586v-1.872h2.225v1.872h1.408
				c-0.368-0.271-0.784-0.544-1.168-0.752l1.296-1.217c0.736,0.368,1.665,0.961,2.113,1.425l-0.561,0.544h0.784v2.097H855.91z
				 M852.532,126.167v0.752h1.153v-0.752H852.532z M853.686,129.448v-0.752h-1.153v0.752H853.686z M855.91,126.167v0.752h1.232
				v-0.752H855.91z M857.143,129.448v-0.752h-1.232v0.752H857.143z"/>
			<path fill="#55B948" d="M865.491,129.624c-0.032-0.192-0.063-0.432-0.112-0.672c-3.073,0.432-3.697,0.592-4.098,0.8
				c-0.111-0.432-0.464-1.504-0.736-2.081c0.465-0.112,0.816-0.448,1.345-1.041c0.177-0.176,0.465-0.528,0.801-0.993
				c-0.961,0.128-1.297,0.225-1.537,0.336c-0.112-0.417-0.448-1.424-0.688-1.969c0.337-0.096,0.625-0.384,0.945-0.865
				c0.336-0.448,1.344-2.192,1.889-3.89l2.08,0.865c-0.56,1.232-1.313,2.529-2.112,3.633l0.72-0.048
				c0.4-0.656,0.785-1.36,1.089-2.049l1.937,1.249c-0.592,1.072-1.328,2.161-2.129,3.169l1.409-0.464
				c0.399,1.088,0.832,2.513,0.992,3.377L865.491,129.624z M863.106,130.44c-0.08,1.537-0.336,3.169-0.673,4.194
				c-0.447-0.24-1.376-0.528-1.872-0.673c0.368-0.944,0.544-2.449,0.608-3.825L863.106,130.44z M864.932,130.072
				c0.224,1.152,0.399,2.625,0.464,3.618l-1.809,0.384c-0.017-0.992-0.192-2.513-0.368-3.666L864.932,130.072z M864.947,127.207
				c-0.08-0.304-0.176-0.608-0.272-0.896c-0.271,0.368-0.576,0.705-0.864,1.041L864.947,127.207z M867.477,127.655h7.459v6.979
				h-2.386v-0.736h-2.801v0.736h-2.272v-2.049l-1.665,0.592c-0.128-0.832-0.48-2.129-0.784-3.105l1.601-0.528
				c0.336,0.913,0.656,2.065,0.849,2.881V127.655z M872.422,119.988c-0.08,0.208-0.16,0.417-0.256,0.608
				c0.992,1.473,2.545,2.993,3.985,3.922c-0.544,0.432-1.328,1.28-1.712,1.873c-0.272-0.224-0.561-0.48-0.833-0.752v1.024h-5.346
				v-0.768c-0.288,0.24-0.576,0.464-0.881,0.672c-0.319-0.48-1.088-1.313-1.568-1.697c2.001-1.232,3.665-3.377,4.514-5.522
				L872.422,119.988z M872.614,124.566c-0.528-0.608-1.04-1.296-1.488-1.985c-0.448,0.72-0.944,1.376-1.489,1.985H872.614z
				 M869.749,129.688v2.177h2.801v-2.177H869.749z"/>
			<path fill="#55B948" d="M882.996,129.768l0.224,2.145c-2.032,0.48-4.226,0.961-5.954,1.345l-0.48-2.289
				c0.896-0.144,2.033-0.352,3.233-0.592c0.385-1.569,0.704-3.954,0.833-5.747l2.145,0.336c-0.305,1.681-0.704,3.585-1.072,5.026
				L882.996,129.768z M883.444,124.23h-6.563v-2.129h2.577c-0.177-0.624-0.513-1.44-0.816-2.065l2-0.56
				c0.417,0.704,0.816,1.648,0.993,2.272l-1.104,0.353h2.913V124.23z M877.906,130.168c-0.032-1.393-0.288-3.506-0.545-5.122
				l1.777-0.336c0.304,1.633,0.56,3.666,0.656,5.074L877.906,130.168z M888.246,124.358v2.529h3.058v7.651h-2.386v-0.688h-3.217
				v0.752h-2.257v-7.715h2.4v-7.491h2.401v2.753h3.537v2.209H888.246z M888.918,129.048h-3.217v2.641h3.217V129.048z"/>
		</g>
	</g>
	<g>
		<g>
			<path fill="#FFFFFF" d="M588.878,112.47c-0.382,0-0.747-0.071-1.083-0.202c-0.285,0.089-0.588,0.138-0.901,0.138h-2.081
				c-1.657,0-3-1.343-3-3v-1.815c-0.313-0.313-0.56-0.696-0.711-1.127c-0.084-0.237-0.389-0.83-0.536-1.044
				c-1.033-1.205-0.95-3.014,0.204-4.119c0.122-0.118,0.249-0.253,0.377-0.403c-0.462-0.528-0.742-1.219-0.742-1.976V96.92
				c0-0.798,0.312-1.523,0.82-2.061c0.018-0.151,0.047-0.302,0.088-0.451c0.236-0.854,0.839-1.561,1.645-1.929l1.856-0.848
				c0.401-0.184,0.826-0.271,1.246-0.271c0.896,0,1.771,0.401,2.354,1.14c0.154,0.196,0.325,0.423,0.5,0.669h0.496
				c0.445-1.099,1.522-1.873,2.781-1.873h2.225c0.202,0,0.398,0.02,0.589,0.058c0.307-0.102,0.627-0.154,0.949-0.154
				c0.456,0,0.915,0.104,1.341,0.317c0.314,0.157,1.936,0.995,2.929,2.024c0.344,0.355,0.581,0.774,0.715,1.217
				c0.225,0.421,0.352,0.901,0.352,1.411v2.097c0,0.579-0.164,1.12-0.448,1.578v7.449c0,0.735,0,2.973-2.04,4.295
				c-1.338,0.851-2.71,0.851-3.617,0.851c-0.238,0-0.471-0.028-0.694-0.081c-0.024,0-2.299,0.001-2.299,0.001
				c-0.098,0-0.194-0.005-0.29-0.014c-0.273,0.082-0.563,0.125-0.862,0.125H588.878z"/>
			<path fill="#FFFFFF" d="M611.057,112.501c-0.506,0-0.982-0.125-1.4-0.346c-0.418,0.221-0.895,0.346-1.4,0.346h-2.273
				c-0.824,0-1.571-0.333-2.113-0.871l-1.073,0.228c-0.223,0.175-0.471,0.319-0.739,0.427c-0.358,0.144-0.738,0.215-1.116,0.215
				c-0.484,0-0.967-0.117-1.404-0.349c-0.141-0.068-0.633-0.248-1.301-0.441c-0.811-0.234-1.484-0.798-1.857-1.553
				c-0.373-0.756-0.412-1.633-0.105-2.419c0.144-0.368,0.336-1.341,0.406-2.874c0.002-0.042,0.005-0.084,0.009-0.126
				c-0.117-0.346-0.255-0.721-0.349-0.919c-0.385-0.816-0.383-1.763,0.007-2.577c0.057-0.117,0.119-0.23,0.189-0.337
				c-0.106-0.31-0.225-0.632-0.308-0.82c-0.351-0.793-0.341-1.699,0.027-2.484c0.262-0.559,0.687-1.018,1.21-1.322
				c0.017-0.023,0.033-0.046,0.051-0.069c0.174-0.244,0.996-1.646,1.433-3.006c0.256-0.799,0.835-1.454,1.597-1.807
				c0.399-0.185,0.829-0.277,1.26-0.277c0.391,0,0.782,0.076,1.15,0.229l2.081,0.864c0.411,0.171,0.775,0.429,1.068,0.752
				c0.497-1.084,1.577-1.75,2.728-1.75c0.29,0,0.585,0.042,0.877,0.131l2.097,0.641c0.796,0.243,1.455,0.807,1.82,1.555
				c0.189,0.39,0.29,0.811,0.302,1.235c0.705,0.808,1.567,1.579,2.355,2.087c0.813,0.524,1.324,1.409,1.371,2.375
				c0.048,0.966-0.374,1.896-1.132,2.498c-0.046,0.037-0.098,0.081-0.152,0.131c0.047,0.211,0.071,0.43,0.071,0.655v6.979
				c0,1.657-1.343,3-3,3H611.057z"/>
			<path fill="#FFFFFF" d="M621.95,112.47c-1.312,0-2.427-0.842-2.834-2.014c-0.605,0.135-2.693,0.598-2.693,0.598
				c-0.216,0.048-0.434,0.072-0.651,0.072c-0.572,0-1.137-0.164-1.626-0.479c-0.674-0.435-1.146-1.122-1.311-1.906l-0.479-2.289
				c-0.168-0.803,0-1.639,0.464-2.314c0.143-0.207,0.309-0.393,0.494-0.556c-0.076-0.812-0.19-1.748-0.33-2.69
				c-0.374-0.5-0.596-1.121-0.596-1.794v-2.128c0-1.248,0.762-2.317,1.845-2.77c0.043-0.178,0.103-0.354,0.179-0.523
				c0.364-0.812,1.071-1.42,1.928-1.661l2.001-0.561c0.269-0.075,0.541-0.112,0.81-0.112c1.038,0,2.027,0.541,2.578,1.466
				c0.512-0.921,1.495-1.545,2.624-1.545h2.4c1.573,0,2.864,1.212,2.99,2.753h0.548c1.657,0,3,1.343,3,3v2.209
				c0,0.662-0.214,1.273-0.577,1.77c0.063,0.243,0.097,0.497,0.097,0.759v7.651c0,1.657-1.343,3-3,3h-2.385
				c-0.571,0-1.104-0.159-1.559-0.436c-0.476,0.316-1.046,0.5-1.659,0.5H621.95z"/>
		</g>
		<g>
			<path fill="#55B948" d="M594.416,98.265v0.832h3.426v8.195c0,0.881-0.128,1.425-0.672,1.777
				c-0.528,0.336-1.153,0.368-1.985,0.368c-0.063-0.577-0.336-1.457-0.592-2.001c0.319,0.016,0.72,0.016,0.864,0.016
				c0.144,0,0.191-0.048,0.191-0.208v-1.152h-1.232v3.266h-2.225v-3.266h-1.152v3.377h-2.161v-8.083
				c-0.353,0.384-0.656,0.784-0.929,1.104c0.353,0.448,0.656,0.849,0.785,1.009l-1.201,1.553c-0.16-0.32-0.384-0.721-0.64-1.153
				v5.506h-2.081v-4.994c-0.288,0.4-0.592,0.752-0.881,1.057c-0.191-0.544-0.752-1.633-1.088-2.001
				c1.12-1.072,2.209-2.833,2.945-4.546h-2.385V96.92h1.824c-0.271-0.528-0.672-1.2-1.024-1.712l1.856-0.848
				c0.48,0.608,1.009,1.408,1.265,1.953l-1.2,0.608h0.656l0.384-0.08l1.169,0.736c-0.368,1.152-0.864,2.354-1.44,3.474v0.112
				l0.191,0.224c0.257-0.432,0.513-0.928,0.673-1.296l1.12,0.8v-1.793h3.313v-0.832h-3.586v-2.097h3.586v-1.873h2.225v1.873h1.409
				c-0.368-0.272-0.784-0.544-1.169-0.752l1.297-1.216c0.736,0.368,1.664,0.96,2.112,1.424l-0.56,0.544h0.784v2.097H594.416z
				 M591.039,101.034v0.752h1.152v-0.752H591.039z M592.191,104.316v-0.753h-1.152v0.753H592.191z M594.416,101.034v0.752h1.232
				v-0.752H594.416z M595.648,104.316v-0.753h-1.232v0.753H595.648z"/>
			<path fill="#55B948" d="M603.998,104.492c-0.032-0.192-0.064-0.432-0.112-0.672c-3.073,0.432-3.697,0.592-4.098,0.8
				c-0.112-0.432-0.464-1.504-0.736-2.081c0.464-0.112,0.816-0.448,1.345-1.04c0.176-0.176,0.464-0.528,0.8-0.992
				c-0.96,0.128-1.296,0.224-1.536,0.336c-0.112-0.416-0.448-1.425-0.688-1.969c0.336-0.096,0.624-0.384,0.944-0.864
				c0.336-0.448,1.345-2.193,1.889-3.89l2.081,0.864c-0.561,1.232-1.313,2.529-2.113,3.633l0.721-0.048
				c0.4-0.656,0.784-1.361,1.089-2.049l1.937,1.249c-0.593,1.072-1.329,2.161-2.129,3.169l1.408-0.464
				c0.4,1.088,0.833,2.513,0.992,3.377L603.998,104.492z M601.613,105.308c-0.08,1.537-0.337,3.169-0.673,4.193
				c-0.448-0.24-1.376-0.528-1.873-0.672c0.368-0.944,0.545-2.449,0.608-3.826L601.613,105.308z M603.438,104.94
				c0.225,1.152,0.4,2.625,0.464,3.617l-1.809,0.384c-0.016-0.993-0.192-2.513-0.368-3.666L603.438,104.94z M603.453,102.075
				c-0.08-0.304-0.176-0.608-0.271-0.896c-0.272,0.368-0.576,0.704-0.864,1.041L603.453,102.075z M605.982,102.523h7.459v6.979
				h-2.385v-0.736h-2.801v0.736h-2.273v-2.049l-1.664,0.593c-0.129-0.833-0.48-2.129-0.785-3.105l1.601-0.528
				c0.337,0.912,0.656,2.065,0.849,2.881V102.523z M610.929,94.856c-0.08,0.208-0.16,0.416-0.257,0.608
				c0.993,1.472,2.546,2.993,3.986,3.921c-0.545,0.432-1.329,1.28-1.713,1.873c-0.272-0.224-0.561-0.48-0.832-0.752v1.024h-5.347
				v-0.769c-0.288,0.24-0.576,0.464-0.88,0.672c-0.32-0.48-1.089-1.313-1.568-1.697c2-1.232,3.665-3.377,4.514-5.522L610.929,94.856
				z M611.121,99.434c-0.528-0.608-1.041-1.296-1.489-1.985c-0.448,0.721-0.944,1.377-1.488,1.985H611.121z M608.256,104.556v2.177
				h2.801v-2.177H608.256z"/>
			<path fill="#55B948" d="M621.502,104.636l0.225,2.145c-2.033,0.48-4.226,0.96-5.955,1.345l-0.479-2.289
				c0.896-0.145,2.032-0.353,3.233-0.593c0.384-1.568,0.704-3.953,0.832-5.746l2.145,0.336c-0.304,1.681-0.704,3.586-1.072,5.026
				L621.502,104.636z M621.95,99.097h-6.563v-2.128h2.577c-0.176-0.625-0.512-1.441-0.816-2.065l2.001-0.561
				c0.416,0.705,0.816,1.649,0.992,2.273l-1.104,0.352h2.913V99.097z M616.412,105.036c-0.032-1.393-0.288-3.505-0.544-5.122
				l1.776-0.336c0.305,1.633,0.561,3.666,0.656,5.074L616.412,105.036z M626.752,99.226v2.529h3.058v7.651h-2.385v-0.688h-3.218
				v0.752h-2.257v-7.715h2.401v-7.491h2.4v2.753h3.538v2.209H626.752z M627.425,103.916h-3.218v2.641h3.218V103.916z"/>
		</g>
	</g>
</g>
</svg>
